<?xml version="1.0" encoding="UTF-8" standalone="no"?>
<!-- Created with Inkscape (http://www.inkscape.org/) -->

<svg
   width="95.000313"
   height="94.165794"
   viewBox="0 0 95.000313 94.165794"
   version="1.1"
   id="SVGRoot"
   sodipodi:docname="/var/folders/sz/0tg5h46d5rzd523xttj8pc040000gn/T/ink_ext_XXXXXX.svg4PC2T2"
   inkscape:export-filename="ig-logo.svg"
   inkscape:export-xdpi="101.94785"
   inkscape:export-ydpi="101.94785"
   xmlns:inkscape="http://www.inkscape.org/namespaces/inkscape"
   xmlns:sodipodi="http://sodipodi.sourceforge.net/DTD/sodipodi-0.dtd"
   xmlns="http://www.w3.org/2000/svg"
   xmlns:svg="http://www.w3.org/2000/svg">
  <sodipodi:namedview
     id="namedview6701"
     pagecolor="#ffffff"
     bordercolor="#000000"
     borderopacity="0.25"
     inkscape:showpageshadow="2"
     inkscape:pageopacity="0.0"
     inkscape:pagecheckerboard="0"
     inkscape:deskcolor="#d1d1d1"
     inkscape:document-units="px"
     showgrid="true"
     inkscape:zoom="0.25"
     inkscape:cx="47.0"
     inkscape:cy="47.0"
     inkscape:window-width="1309"
     inkscape:window-height="148"
     inkscape:window-x="0"
     inkscape:window-y="25"
     inkscape:window-maximized="0"
     inkscape:current-layer="layer1"
     showborder="true">
    <inkscape:grid
       type="xygrid"
       id="grid6824"
       originx="0"
       originy="0" />
  </sodipodi:namedview>
  <defs
     id="defs6696" />
  <g
     inkscape:label="Layer 1"
     inkscape:groupmode="layer"
     id="layer1"
     transform="translate(-2.5477109,-3.6658394)">
    <path
       id="path11058"
       style="font-size:59.9723px;font-family:'CopprplGoth BT';-inkscape-font-specification:'CopprplGoth BT';opacity:1;fill:#524d46;fill-opacity:0.0156863;stroke:#524d46;stroke-width:3.94277;stroke-dasharray:none;stroke-opacity:0.996078"
       d="M 94.25544,50.748731 A 44.207582,42.376101 0 0 1 50.047871,93.124828 44.207582,42.376101 0 0 1 5.8403,50.748731 44.207582,42.376101 0 0 1 50.047871,8.3726419 44.207582,42.376101 0 0 1 94.25544,50.748731 Z" />
    <path
       id="path10789"
       style="font-size:59.9723px;font-family:'CopprplGoth BT';-inkscape-font-specification:'CopprplGoth BT';opacity:1;fill:#514c45;fill-opacity:0.996078;stroke:#514c45;stroke-width:1.22751;stroke-dasharray:none;stroke-opacity:0.996078"
       d="m 55.76472,17.376353 c -0.08794,9.26e-4 -0.180113,0.0054 -0.274243,0.01186 -0.250939,0.01759 -0.517697,0.04973 -0.767109,0.06591 -0.124837,0.0081 -0.245621,0.01205 -0.357262,0.0083 -0.05586,-0.0019 -0.108801,-0.0057 -0.159816,-0.01186 -0.05102,-0.0063 -0.09952,-0.01499 -0.144548,-0.02656 H 41.400454 c -0.02434,0.06242 -0.04561,0.122557 -0.06262,0.180373 -0.01933,0.05782 -0.03032,0.11311 -0.0406,0.166627 -0.0096,0.05354 -0.01933,0.105255 -0.02128,0.154717 -0.0041,0.0495 -0.0041,0.09708 -9.45e-4,0.142805 0.0014,0.04573 0.0078,0.08957 0.01543,0.131837 0.0078,0.04229 0.0205,0.08269 0.03226,0.121762 0.01355,0.03911 0.0294,0.0764 0.04776,0.112611 0.01933,0.03617 0.03902,0.07167 0.06184,0.105289 0.04541,0.06721 0.09893,0.129172 0.159819,0.187689 0.06068,0.05852 0.12851,0.113625 0.201457,0.165701 0.07285,0.05208 0.150933,0.101256 0.232755,0.149233 0.08175,0.04798 0.166961,0.09397 0.253985,0.140064 0.174317,0.09221 0.356703,0.183465 0.533359,0.281985 0.08831,0.04928 0.174883,0.10046 0.259069,0.154718 0.08406,0.05425 0.165423,0.111479 0.241873,0.173037 0.07633,0.06156 0.148032,0.127555 0.213542,0.198675 0.03267,0.03558 0.06397,0.07239 0.09316,0.110778 0.02939,0.03838 0.05623,0.07844 0.08194,0.119943 0.02573,0.04151 0.04945,0.08419 0.07093,0.129061 0.02163,0.0449 0.04095,0.09151 0.05778,0.140082 0.01933,0.04857 0.03052,0.09944 0.04248,0.151992 0.01162,0.05254 0.02184,0.107108 0.02844,0.163884 0.04443,0.422576 0.07826,0.845276 0.10513,1.26895 0.02685,0.423665 0.04617,0.848065 0.05952,1.272607 0.0096,0.302849 0.01355,0.605947 0.01933,0.909135 0.332277,-0.04378 0.664085,-0.08588 0.99683,-0.123583 0.381752,-0.04328 0.764364,-0.08271 1.146632,-0.118129 0.38227,-0.03538 0.764883,-0.06663 1.147603,-0.09428 0.382666,-0.02764 0.765639,-0.05135 1.148654,-0.07143 0.382969,-0.02005 0.76543,-0.03597 1.148626,-0.04852 0.383195,-0.0124 0.767358,-0.02138 1.15065,-0.02656 0.383295,-0.0052 0.76634,-0.0068 1.149625,-0.0044 0.383296,0.0024 0.766508,0.0074 1.14967,0.01646 0.250184,0.0061 0.499865,0.01573 0.749915,0.02475 0.0013,-0.669886 0.0013,-1.339734 0.004,-2.00962 -0.02049,-0.0733 -0.03651,-0.144747 -0.04867,-0.213321 -0.01162,-0.06856 -0.02049,-0.134565 -0.02414,-0.198677 -0.0041,-0.0641 -0.0041,-0.125927 -9.45e-4,-0.185851 0.0041,-0.05993 0.0096,-0.117944 0.02049,-0.173966 0.0096,-0.05602 0.02316,-0.110592 0.03962,-0.162957 0.01543,-0.0524 0.03497,-0.102922 0.05662,-0.151994 0.02163,-0.04907 0.04582,-0.09592 0.07287,-0.141916 0.02685,-0.04598 0.05758,-0.09138 0.08908,-0.134563 0.06319,-0.08639 0.134888,-0.166642 0.213538,-0.243534 0.07866,-0.07688 0.16484,-0.15014 0.25502,-0.219734 0.09005,-0.0696 0.183973,-0.13597 0.28133,-0.200503 0.0974,-0.06454 0.197344,-0.126928 0.297566,-0.188602 0.200206,-0.123354 0.401438,-0.243675 0.587964,-0.368966 0.09314,-0.06264 0.18262,-0.125801 0.266142,-0.192261 0.08369,-0.06647 0.161173,-0.136265 0.230727,-0.208744 0.03497,-0.03627 0.06763,-0.07263 0.09817,-0.110774 0.03053,-0.03818 0.05932,-0.07775 0.08503,-0.118116 0.02572,-0.04034 0.04944,-0.08167 0.06977,-0.124502 0.02049,-0.04284 0.03803,-0.08714 0.05275,-0.132746 0.01355,-0.04563 0.02629,-0.09235 0.03461,-0.140969 0.0077,-0.04862 0.01355,-0.09912 0.01355,-0.151086 0.0013,-0.05197 -9.44e-4,-0.105589 -0.0077,-0.16111 -0.0057,-0.05552 -0.01543,-0.112737 -0.03032,-0.172107 -0.01161,-0.04103 -0.03016,-0.07788 -0.05275,-0.109872 -0.02241,-0.03196 -0.05048,-0.05941 -0.08213,-0.0833 -0.0315,-0.02392 -0.06687,-0.04367 -0.106285,-0.06042 -0.03942,-0.01685 -0.08251,-0.03059 -0.128509,-0.04122 -0.04616,-0.01053 -0.09488,-0.01833 -0.146678,-0.02377 -0.05198,-0.0056 -0.106284,-0.0089 -0.163106,-0.01 -0.02822,-4.59e-4 -0.0568,-2.74e-4 -0.086,0 z m -1.948121,11.20443 c -0.373556,-9.25e-4 -0.747527,0.0015 -1.121317,0.0093 -0.3738,0.0074 -0.747589,0.01897 -1.121299,0.0348 -0.373725,0.01593 -0.747032,0.03514 -1.120311,0.05952 -0.37329,0.02436 -0.746783,0.05306 -1.11927,0.08604 -0.372533,0.03298 -0.743844,0.07095 -1.115271,0.11261 -0.37141,0.04166 -0.742216,0.08785 -1.112181,0.13825 -0.369999,0.05038 -0.738963,0.104662 -1.107165,0.163883 -0.368184,0.0592 -0.735993,0.123262 -1.102092,0.191345 -0.279669,0.05202 -0.557604,0.10852 -0.835906,0.165702 2.5e-5,0.06254 -9.45e-4,0.125134 -9.45e-4,0.187689 9.45e-4,0.425291 0.0057,0.850618 0.01543,1.275355 -0.0078,7.030295 -0.0014,14.060932 0.0014,21.091397 0.0014,3.515226 0.0014,7.030045 0.0014,10.545236 -9.45e-4,3.107461 -0.0041,6.214691 -0.0096,9.322078 -9.46e-4,0.407721 0,0.815442 -9.46e-4,1.223167 -9.43e-4,0.464743 -0.0014,0.929632 -0.0014,1.39438 -0.0014,0.868445 -0.0041,1.737198 -0.0078,2.605635 -0.0014,0.850435 -0.0041,1.701196 -0.0057,2.55162 0.0205,0.0725 0.03517,0.142048 0.04659,0.209659 0.01162,0.06763 0.0205,0.132875 0.02224,0.195929 0.0041,0.06304 0.0041,0.123447 0,0.18219 -0.004,0.05874 -0.01162,0.11557 -0.02128,0.170296 -0.0096,0.05472 -0.02496,0.108271 -0.04157,0.159289 -0.01543,0.05103 -0.03636,0.09979 -0.05895,0.14742 -0.02224,0.04759 -0.04637,0.09379 -0.07381,0.138245 -0.02725,0.04445 -0.05797,0.0875 -0.09025,0.129079 -0.06416,0.08319 -0.137019,0.160864 -0.216533,0.234377 -0.07943,0.0735 -0.166394,0.142623 -0.257066,0.208745 -0.09083,0.06614 -0.185708,0.129391 -0.283378,0.190432 -0.09759,0.06104 -0.198162,0.12028 -0.298518,0.178538 -0.200647,0.116538 -0.401934,0.229622 -0.588019,0.348827 -0.09296,0.05959 -0.182242,0.120278 -0.265125,0.184023 -0.0831,0.06372 -0.159819,0.130333 -0.228723,0.2005 -0.03442,0.03508 -0.06726,0.07091 -0.09703,0.108054 -0.03018,0.03708 -0.05797,0.07501 -0.0831,0.114463 -0.02531,0.03946 -0.04811,0.08064 -0.06782,0.122669 -0.0205,0.04205 -0.0367,0.08505 -0.05042,0.130004 -0.01355,0.045 -0.02378,0.09192 -0.0313,0.140065 -0.0078,0.04818 -0.01163,0.09758 -0.01163,0.149236 0,0.05164 0.0041,0.104823 0.0096,0.160197 0.0077,0.05537 0.01932,0.11363 0.03343,0.173037 l -0.0041,0.407418 h 15.129707 c 0.02378,-0.06318 0.04387,-0.123519 0.06068,-0.182209 0.01932,-0.05868 0.03113,-0.11581 0.04157,-0.170295 0.0096,-0.05447 0.01935,-0.106941 0.02149,-0.157459 0.004,-0.05054 0.0057,-0.09869 0.004,-0.145581 -0.0013,-0.04686 -0.0057,-0.09205 -0.01355,-0.135505 -0.0078,-0.04348 -0.01543,-0.08512 -0.02844,-0.125432 -0.01161,-0.04034 -0.02669,-0.07882 -0.04347,-0.116277 -0.01932,-0.03743 -0.03552,-0.07408 -0.05662,-0.108962 -0.04214,-0.06974 -0.09277,-0.134892 -0.149773,-0.195924 -0.057,-0.06103 -0.121173,-0.11763 -0.190356,-0.172107 -0.06898,-0.05448 -0.143574,-0.106463 -0.221618,-0.156572 -0.07807,-0.05011 -0.158847,-0.09857 -0.242871,-0.14649 -0.168127,-0.09581 -0.345103,-0.189252 -0.519171,-0.289313 -0.08716,-0.05003 -0.17412,-0.102199 -0.258045,-0.156567 -0.08406,-0.05435 -0.165999,-0.111259 -0.243904,-0.172112 -0.07826,-0.06084 -0.152472,-0.125484 -0.221635,-0.195013 -0.06899,-0.06954 -0.132187,-0.143968 -0.189195,-0.224303 -0.02859,-0.04019 -0.05604,-0.08122 -0.08097,-0.124507 -0.02511,-0.04328 -0.04791,-0.08882 -0.06861,-0.135505 -0.02086,-0.04672 -0.04075,-0.0952 -0.05778,-0.145583 -0.01932,-0.05035 -0.03092,-0.102256 -0.04347,-0.156552 -0.04443,-0.415454 -0.07806,-0.831291 -0.105121,-1.247885 -0.02685,-0.416595 -0.04715,-0.834066 -0.06088,-1.25155 -0.0057,-0.166816 -0.0057,-0.333877 -0.0096,-0.500799 -0.0057,-0.250847 -0.01163,-0.501527 -0.01355,-0.752578 -0.004,-0.418133 -0.004,-0.83669 -9.43e-4,-1.255214 0.0057,-0.83706 0.0205,-1.674146 0.02726,-2.511341 9.44e-4,-0.119909 0,-0.239927 9.44e-4,-0.359805 0.0013,-0.298644 0.0041,-0.59787 0.0041,-0.896323 -9.44e-4,-0.418259 -0.0057,-0.835698 -0.01739,-1.253379 0.0078,-8.146301 -7.9e-5,-16.293067 -0.0041,-24.439549 -0.0013,-4.073234 -0.0013,-8.14661 0.0013,-12.219764 0.0013,-1.813175 0.0077,-3.626107 0.01159,-5.439253 -0.01543,-5.8e-5 -0.03092,-9.25e-4 -0.04658,-9.25e-4 z m -2.417678,-4.810264 c -0.191515,9.26e-4 -0.383196,0.0019 -0.574861,0.0044 -0.383277,0.0052 -0.767439,0.01407 -1.150637,0.02656 -0.383212,0.0124 -0.765636,0.02849 -1.148634,0.04851 -0.383015,0.02005 -0.765978,0.04378 -1.148609,0.07143 -0.382763,0.02764 -0.765376,0.05889 -1.147664,0.09429 -0.382271,0.03538 -0.764847,0.07484 -1.146616,0.11813 -0.33276,0.03769 -0.664571,0.0798 -0.996837,0.123594 -0.04909,0.0065 -0.09799,0.01167 -0.146684,0.01833 -0.381085,0.05127 -0.76218,0.106328 -1.142555,0.165702 -0.380374,0.05939 -0.760032,0.122815 -1.139526,0.190432 -0.335789,0.05776 -0.6721,0.119483 -1.007988,0.184024 -0.335833,0.06454 -0.671356,0.131947 -1.00691,0.203246 -0.335564,0.07134 -0.671066,0.146179 -1.00593,0.224311 -0.334927,0.07814 -0.669072,0.159497 -1.002929,0.244451 -0.333859,0.08497 -0.667411,0.173665 -0.999885,0.265509 -0.332448,0.09183 -0.664122,0.186934 -0.994809,0.28565 -0.330678,0.0987 -0.660179,0.201069 -0.988755,0.306712 -0.32854,0.105626 -0.656605,0.21518 -0.982635,0.32776 -0.326071,0.112574 -0.650387,0.228361 -0.973556,0.347907 -0.323194,0.119537 -0.644529,0.242421 -0.964454,0.368961 -0.319932,0.126523 -0.638005,0.25646 -0.954293,0.390027 -0.316329,0.13356 -0.630892,0.270462 -0.943214,0.411074 -0.312333,0.140621 -0.623105,0.285365 -0.93109,0.433055 -0.307939,0.147695 -0.61359,0.298409 -0.916876,0.453195 -0.303224,0.154787 -0.603518,0.313249 -0.901684,0.475167 -0.298182,0.161903 -0.593826,0.327154 -0.886521,0.496223 -0.292731,0.169074 -0.582462,0.341951 -0.869299,0.5182 -0.286919,0.17624 -0.571475,0.356714 -0.852122,0.540173 -0.28071,0.183463 -0.557792,0.369618 -0.8319,0.560311 -0.274089,0.190688 -0.545465,0.385249 -0.812639,0.583206 -0.267211,0.197946 -0.530475,0.399937 -0.790378,0.605173 -0.259879,0.205229 -0.51592,0.413685 -0.76809,0.626229 -0.25225,0.212552 -0.500693,0.429237 -0.744886,0.649121 -0.244146,0.21989 -0.483758,0.442926 -0.719534,0.670179 -0.235755,0.227256 -0.467255,0.458424 -0.694227,0.693067 -0.226969,0.234648 -0.450087,0.472977 -0.667938,0.71504 -0.217836,0.242062 -0.430244,0.488424 -0.638565,0.737933 -0.208319,0.249508 -0.411816,0.501996 -0.610247,0.758984 -0.198386,0.256982 -0.392718,0.518312 -0.580889,0.782789 -0.188037,0.264481 -0.370961,0.532757 -0.548513,0.804767 -0.177588,0.272006 -0.349572,0.547182 -0.516135,0.826739 -0.166573,0.279549 -0.327551,0.563405 -0.482724,0.850535 -0.146488,0.266658 -0.286005,0.53536 -0.418961,0.806595 -0.133154,0.27124 -0.259016,0.544932 -0.378517,0.820328 -0.119625,0.275402 -0.232871,0.552171 -0.339021,0.831313 -0.106097,0.27915 -0.205635,0.560752 -0.298554,0.843221 -0.09276,0.28247 -0.179329,0.566076 -0.259096,0.851452 -0.07961,0.285376 -0.153046,0.572745 -0.219586,0.860616 -0.06668,0.287871 -0.126382,0.576163 -0.180105,0.866101 -0.05392,0.289944 -0.10146,0.580927 -0.142624,0.872517 -0.04096,0.291591 -0.07498,0.584263 -0.103001,0.877094 -0.02823,0.292821 -0.05006,0.586191 -0.0657,0.879835 -0.01543,0.293649 -0.02413,0.587622 -0.02726,0.881672 -0.004,0.294047 0,0.587642 0.0096,0.881667 0.0096,0.294028 0.02496,0.588078 0.04659,0.881669 0.02184,0.293595 0.05027,0.587101 0.08407,0.879838 0.03399,0.292738 0.07441,0.584711 0.120585,0.876174 0.04597,0.291468 0.09759,0.582741 0.155958,0.872516 0.05836,0.289773 0.122131,0.578442 0.192283,0.866107 0.06996,0.287664 0.145895,0.573642 0.227662,0.858778 0.08195,0.28514 0.169677,0.569271 0.263149,0.851456 0.09373,0.282195 0.193256,0.562557 0.298516,0.841384 0.105131,0.278833 0.216289,0.556268 0.333014,0.831317 0.116723,0.27505 0.238238,0.547647 0.366315,0.818501 0.128134,0.270847 0.262403,0.539441 0.401776,0.805677 0.139721,0.266232 0.2846,0.530748 0.435166,0.791947 0.150536,0.261191 0.306836,0.519718 0.46853,0.775461 0.161749,0.255748 0.328288,0.508197 0.50098,0.758073 0.17297,0.249875 0.350775,0.49709 0.534318,0.740677 0.183401,0.243578 0.3724,0.483656 0.566732,0.720529 0.194269,0.236877 0.394083,0.470644 0.599141,0.700395 0.204947,0.229752 0.41588,0.455291 0.631461,0.6775 0.215669,0.222209 0.436808,0.440373 0.66289,0.654618 0.226119,0.214243 0.456764,0.424943 0.693247,0.630806 0.303861,0.273101 0.612924,0.540554 0.925995,0.802017 0.313027,0.261467 0.630426,0.517264 0.952263,0.767233 0.321874,0.249954 0.648311,0.493836 0.978639,0.73243 0.330282,0.238602 0.664553,0.471201 1.002875,0.698561 0.338394,0.227364 0.680124,0.449337 1.026217,0.6656 0.346032,0.216268 0.696049,0.427345 1.049447,0.632644 0.353414,0.205299 0.710326,0.405218 1.070703,0.599679 0.360396,0.194468 0.723955,0.382955 1.090915,0.566722 0.36698,0.183783 0.738067,0.362389 1.11122,0.535594 0.373241,0.173187 0.749341,0.34169 1.128385,0.504466 0.379091,0.162775 0.761083,0.319945 1.145626,0.472417 0.384517,0.152494 0.771091,0.299894 1.160791,0.442211 0.389674,0.142305 0.782499,0.279711 1.176951,0.411995 0.394463,0.132282 0.791321,0.259395 1.190131,0.381783 0.398811,0.122391 0.799425,0.239857 1.20225,0.352484 0.40285,0.112628 0.807895,0.220192 1.214429,0.323183 0.406518,0.102996 0.814735,0.201305 1.224576,0.294812 0.409733,0.09351 0.820914,0.182279 1.233593,0.266424 0.412743,0.08415 0.826511,0.164047 1.241742,0.238955 0.415285,0.07493 0.831405,0.144731 1.24883,0.210574 0.417459,0.06582 0.836679,0.12715 1.255916,0.18404 0.06841,0.0093 0.13702,0.01667 0.205465,0.02563 0.0014,-0.868441 0.0057,-1.737194 0.0077,-2.60564 8e-5,-0.464743 9.44e-4,-0.929632 0.0014,-1.394373 9.45e-4,-0.407725 0,-0.815447 9.45e-4,-1.223167 -0.187258,-0.04061 -0.374448,-0.07973 -0.561651,-0.122714 -0.305252,-0.07006 -0.610398,-0.143265 -0.914879,-0.219724 -0.304412,-0.07647 -0.608549,-0.156067 -0.911801,-0.238957 -0.303233,-0.08291 -0.606072,-0.168814 -0.907775,-0.258183 -0.301705,-0.08937 -0.601856,-0.181576 -0.901723,-0.277411 -0.299791,-0.09583 -0.599035,-0.195227 -0.896627,-0.297551 -0.297546,-0.102347 -0.593564,-0.207941 -0.888549,-0.316782 -0.29496,-0.108832 -0.588464,-0.22064 -0.880422,-0.336002 -0.292029,-0.115388 -0.582712,-0.23424 -0.871373,-0.356149 -0.288635,-0.12189 -0.575184,-0.2469 -0.8602,-0.375372 -0.284977,-0.128467 -0.568132,-0.260463 -0.849085,-0.395517 -0.280928,-0.13506 -0.56036,-0.273089 -0.836941,-0.414739 -0.276523,-0.141638 -0.54993,-0.286611 -0.821764,-0.434885 -0.271784,-0.148286 -0.541848,-0.300119 -0.808564,-0.455022 -0.266678,-0.154904 -0.53014,-0.313612 -0.79141,-0.475167 C 31.109389,66.82804 30.850814,66.663427 30.595437,66.495195 30.339979,66.326976 30.087666,66.155578 29.838413,65.980663 29.589181,65.805736 29.343329,65.62761 29.100681,65.445979 28.857953,65.264348 28.617982,65.078596 28.382137,64.890244 28.146323,64.701908 27.914438,64.510387 27.685906,64.315297 27.457309,64.120202 27.231854,63.922044 27.010877,63.720191 26.789898,63.518338 26.573168,63.312662 26.360149,63.10403 26.147146,62.895398 25.938431,62.684071 25.73372,62.468641 25.528978,62.25321 25.327608,62.034438 25.131566,61.812191 24.935464,61.589953 24.744779,61.363765 24.557758,61.134689 24.370693,60.905619 24.187876,60.672973 24.010252,60.437044 23.832654,60.201124 23.660007,59.96205 23.492113,59.719261 23.324174,59.476467 23.161129,59.230096 23.003306,58.980416 22.84542,58.730736 22.692184,58.478008 22.544872,58.221431 22.397619,57.964846 22.256353,57.704888 22.119804,57.441388 22.01506,57.241245 21.915067,57.039077 21.82125,56.83621 c -0.09392,-0.202864 -0.182232,-0.407187 -0.265142,-0.612497 -0.08309,-0.205313 -0.160205,-0.411415 -0.232772,-0.61891 -0.07247,-0.20749 -0.140299,-0.415912 -0.202484,-0.625317 -0.06204,-0.209402 -0.118268,-0.419769 -0.170059,-0.630812 -0.0518,-0.211037 -0.09894,-0.422982 -0.140495,-0.635383 -0.04157,-0.212407 -0.07769,-0.425552 -0.10919,-0.63905 -0.03149,-0.213504 -0.05933,-0.427468 -0.08097,-0.641796 -0.02163,-0.214332 -0.03845,-0.428747 -0.05048,-0.643632 -0.0116,-0.214882 -0.02049,-0.430287 -0.02142,-0.645457 -0.0013,-0.21517 -9.43e-4,-0.430277 0.0057,-0.645462 0.0057,-0.215179 0.01934,-0.429608 0.03458,-0.644539 0.01543,-0.21493 0.03651,-0.430145 0.06165,-0.644546 0.0251,-0.2144 0.05508,-0.428193 0.08908,-0.641799 0.034,-0.213596 0.07248,-0.427429 0.115368,-0.639962 0.0429,-0.212533 0.08929,-0.424193 0.140495,-0.635389 0.05161,-0.211196 0.108025,-0.421223 0.16813,-0.630807 0.05991,-0.209587 0.124072,-0.418528 0.192473,-0.626233 0.06842,-0.207705 0.140107,-0.414269 0.216594,-0.619823 0.07633,-0.205559 0.157502,-0.410278 0.241839,-0.613417 0.08445,-0.203132 0.172961,-0.404736 0.265133,-0.605178 0.09257,-0.200441 0.188234,-0.399452 0.288471,-0.596934 0.09991,-0.19748 0.204111,-0.39353 0.311687,-0.587778 0.107638,-0.194241 0.219866,-0.386964 0.334966,-0.577705 0.115176,-0.190747 0.233876,-0.379755 0.356279,-0.566724 0.122328,-0.186972 0.247921,-0.371896 0.377454,-0.554822 0.129483,-0.182929 0.262241,-0.363393 0.398738,-0.542 0.136623,-0.178612 0.276671,-0.35516 0.419947,-0.529184 0.143397,-0.174019 0.290251,-0.345372 0.440243,-0.514539 0.149964,-0.169147 0.302947,-0.335844 0.459457,-0.499883 0.156532,-0.164051 0.316799,-0.325684 0.479709,-0.484324 0.163104,-0.158629 0.328756,-0.314871 0.497924,-0.467844 0.260965,-0.247774 0.526824,-0.490086 0.796406,-0.727861 0.269645,-0.237775 0.542898,-0.470717 0.820762,-0.698562 0.277853,-0.227835 0.56028,-0.450386 0.846021,-0.668346 0.285786,-0.217958 0.575006,-0.431824 0.868338,-0.639966 0.293316,-0.208142 0.589989,-0.411363 0.890555,-0.60975 0.300512,-0.19839 0.605308,-0.391774 0.912774,-0.580458 0.307436,-0.188688 0.618071,-0.372113 0.932083,-0.551166 0.313994,-0.179052 0.631081,-0.353301 0.951257,-0.522768 0.320211,-0.169481 0.643451,-0.334447 0.969537,-0.494395 0.326072,-0.159942 0.655098,-0.315522 0.986698,-0.466015 0.331622,-0.150489 0.6661,-0.295616 1.002911,-0.436712 0.336797,-0.141083 0.676422,-0.277489 1.018068,-0.409245 0.341667,-0.131746 0.685109,-0.259311 1.031265,-0.381784 0.346165,-0.122487 0.694056,-0.240142 1.044397,-0.3534 0.35031,-0.113258 0.703409,-0.221837 1.057526,-0.325938 0.354169,-0.104122 0.710064,-0.203462 1.067694,-0.298467 0.357645,-0.09499 0.716998,-0.18595 1.07779,-0.271917 0.360798,-0.08598 0.723342,-0.167462 1.086881,-0.244445 0.0858,-0.01813 0.172377,-0.03362 0.258109,-0.05127 0.27824,-0.0572 0.556175,-0.113724 0.835899,-0.165702 0.366081,-0.06808 0.733899,-0.132118 1.10207,-0.191345 0.368186,-0.05922 0.737179,-0.113484 1.107135,-0.163889 0.370014,-0.05042 0.740804,-0.09658 1.112214,-0.138243 0.37141,-0.04166 0.742737,-0.07964 1.115224,-0.112611 0.372534,-0.03299 0.746008,-0.06169 1.119291,-0.08607 0.373278,-0.02436 0.746621,-0.04372 1.120311,-0.05952 0.373727,-0.01573 0.747497,-0.0275 1.121316,-0.0348 0.373744,-0.0074 0.74777,-0.01019 1.121316,-0.0093 0.01543,4.2e-5 0.03072,0.001 0.04659,0.001 0.357997,0.0015 0.716283,0.0056 1.073741,0.0148 0.3729,0.0095 0.745269,0.02338 1.117264,0.04122 0.372001,0.0178 0.74351,0.03984 1.114219,0.06591 0.370709,0.02608 0.740051,0.05545 1.109178,0.08972 0.369094,0.03426 0.737951,0.07293 1.105111,0.115352 0.315261,0.03161 0.629804,0.06765 0.944195,0.108033 0.314382,0.04039 0.628027,0.08542 0.941169,0.134579 0.31315,0.04918 0.625636,0.102294 0.937132,0.160222 0.311499,0.05791 0.622558,0.120128 0.932086,0.186772 0.309487,0.06664 0.617821,0.13795 0.924973,0.213322 0.307121,0.07535 0.612509,0.154904 0.916857,0.238956 0.304373,0.08407 0.607541,0.172798 0.908801,0.265506 0.301236,0.09271 0.600913,0.189776 0.898674,0.291145 0.297743,0.101342 0.593645,0.206798 0.887544,0.316783 0.29389,0.109979 0.585742,0.224746 0.875383,0.343323 0.28963,0.118595 0.577204,0.240895 0.862246,0.36805 0.284986,0.127133 0.568006,0.258898 0.848026,0.394599 0.280056,0.135712 0.557218,0.276006 0.831881,0.420234 0.274703,0.144235 0.54677,0.292224 0.815712,0.444956 0.268907,0.152753 0.534625,0.309377 0.797431,0.47059 0.262862,0.161197 0.521912,0.327472 0.778276,0.497139 0.08214,0.03759 0.158849,0.07819 0.229722,0.121781 0.07052,0.04357 0.135274,0.09003 0.195293,0.139157 0.0601,0.04914 0.115755,0.100515 0.165997,0.154698 0.05007,0.05421 0.09568,0.110553 0.136833,0.169369 0.04075,0.05883 0.07788,0.120094 0.110332,0.183115 0.03266,0.06302 0.06106,0.128242 0.086,0.195006 0.02496,0.06673 0.04561,0.135064 0.06397,0.205084 0.01932,0.07002 0.03266,0.141415 0.04464,0.214234 0.01162,0.07282 0.02086,0.147287 0.02705,0.222477 0.0057,0.07521 0.0096,0.151773 0.0116,0.22889 0.004,0.154218 -0.0013,0.311425 -0.01355,0.470588 -0.01161,0.159145 -0.02705,0.320194 -0.04659,0.480662 -0.02049,0.160458 -0.04193,0.320689 -0.0636,0.478828 -0.02182,0.158124 -0.04331,0.313822 -0.06164,0.466012 -0.01932,0.152178 -0.03344,0.30051 -0.04255,0.443122 -0.0096,0.142601 -0.01161,0.279847 -0.0057,0.40925 0.004,0.06471 0.0096,0.127874 0.01932,0.1886 0.0078,0.06071 0.02049,0.118596 0.03227,0.174873 0.01355,0.05628 0.03032,0.110645 0.05041,0.162049 0.0205,0.05139 0.04347,0.100443 0.07093,0.146514 0.02705,0.04607 0.05797,0.08883 0.09296,0.12908 0.03518,0.04029 0.07461,0.07769 0.11846,0.1117 0.04388,0.03401 0.09257,0.06515 0.145524,0.09246 0.05314,0.0273 0.111504,0.05124 0.175082,0.07143 0.06339,0.02015 0.132186,0.03597 0.20647,0.04852 0.07422,0.0126 0.154024,0.02113 0.239844,0.02564 2.435412,-3.986804 4.87034,-7.972952 7.305725,-11.959756 -0.06572,-0.06416 -0.130067,-0.121097 -0.192296,-0.171202 -0.06259,-0.05011 -0.123856,-0.094 -0.183006,-0.130912 -0.05932,-0.03695 -0.117298,-0.06778 -0.174111,-0.09246 -0.05681,-0.0247 -0.1117,-0.04342 -0.165999,-0.05676 -0.0545,-0.01334 -0.107071,-0.02093 -0.15866,-0.02382 -0.05199,-0.0029 -0.102813,-2.75e-4 -0.152865,0.0065 -0.04949,0.0068 -0.09875,0.01759 -0.146684,0.03294 -0.04811,0.01539 -0.09528,0.0346 -0.141645,0.0577 -0.04638,0.02304 -0.09257,0.04977 -0.137791,0.07966 -0.0452,0.0299 -0.08948,0.06307 -0.133719,0.09886 -0.08814,0.07163 -0.173941,0.154533 -0.259106,0.24445 -0.08522,0.0899 -0.168903,0.186517 -0.252978,0.287484 -0.08426,0.100975 -0.168892,0.205583 -0.253994,0.310368 -0.08522,0.104773 -0.171209,0.209925 -0.259088,0.311287 -0.08831,0.101345 -0.178179,0.199526 -0.271224,0.290229 -0.04637,0.04538 -0.09372,0.08867 -0.141456,0.130001 -0.04813,0.04131 -0.09605,0.0808 -0.145516,0.117203 -0.04966,0.03642 -0.101073,0.07013 -0.152865,0.100701 -0.05199,0.03059 -0.104742,0.05767 -0.15866,0.08149 -0.0543,0.02382 -0.109189,0.04426 -0.166008,0.06042 -0.05662,0.01612 -0.114596,0.02803 -0.17412,0.03569 -0.05951,0.0076 -0.120965,0.01093 -0.183006,0.0093 -0.06242,-0.0015 -0.125609,-0.0089 -0.191314,-0.02103 -0.06551,-0.01221 -0.133345,-0.02965 -0.20249,-0.05311 -0.06898,-0.02338 -0.140497,-0.05231 -0.213542,-0.08788 -0.07287,-0.03558 -0.147849,-0.07771 -0.224641,-0.126334 -0.07711,-0.04867 -0.155567,-0.104015 -0.236808,-0.166629 -0.352859,-0.134525 -0.707244,-0.266324 -1.062628,-0.396428 -0.355343,-0.130114 -0.711894,-0.258022 -1.069704,-0.383616 -0.357799,-0.12558 -0.716649,-0.248925 -1.076747,-0.369878 -0.3601,-0.120949 -0.721601,-0.239957 -1.083908,-0.356146 -0.362265,-0.116184 -0.725537,-0.230193 -1.089913,-0.3415 -0.364372,-0.111293 -0.729675,-0.21964 -1.096016,-0.325934 -0.366353,-0.106293 -0.733854,-0.210131 -1.102092,-0.311284 -0.368202,-0.101142 -0.737131,-0.199824 -1.107129,-0.295721 -0.369982,-0.0959 -0.7406,-0.188728 -1.112237,-0.279239 -0.371596,-0.09051 -0.744076,-0.178671 -1.117245,-0.263679 -0.373125,-0.08501 -0.747697,-0.166908 -1.122322,-0.246283 -0.37459,-0.07938 -0.749406,-0.156198 -1.12535,-0.229805 -0.375928,-0.07361 -0.752251,-0.144657 -1.129394,-0.212401 -0.37715,-0.06773 -0.755207,-0.132358 -1.133417,-0.194096 -0.37829,-0.06173 -0.757308,-0.120187 -1.136541,-0.175797 -0.379218,-0.05559 -0.758398,-0.108108 -1.13852,-0.157458 -0.380098,-0.04936 -0.760637,-0.09527 -1.141566,-0.138249 -0.380842,-0.04299 -0.761971,-0.08256 -1.143543,-0.119038 -0.381578,-0.03646 -0.763481,-0.06997 -1.145606,-0.09981 -0.382121,-0.0298 -0.765046,-0.05655 -1.147604,-0.07967 -0.382593,-0.02308 -0.7657,-0.0424 -1.148663,-0.05859 -0.132957,-0.0057 -0.265752,-0.0089 -0.39871,-0.01392 -0.250066,-0.0091 -0.499732,-0.01868 -0.74989,-0.0247 -0.383193,-0.0093 -0.766374,-0.01447 -1.149649,-0.01646 -0.1919,-9.26e-4 -0.383258,-9.26e-4 -0.574825,0 z M 61.1051,47.569178 c -0.01543,9.26e-4 -0.03032,0.0029 -0.04561,0.0065 -0.03032,0.007 -0.06069,0.01951 -0.09123,0.03661 -0.03016,0.01725 -0.05933,0.03877 -0.08907,0.06682 -0.02955,0.02809 -0.05954,0.06183 -0.08909,0.101627 -0.02935,0.0398 -0.05797,0.08595 -0.08715,0.138246 -0.02899,0.0523 -0.05856,0.111111 -0.08716,0.176705 -0.02879,0.06561 -0.0576,0.138211 -0.086,0.217905 v 11.629247 c 0.07769,0.0174 0.15247,0.03004 0.224672,0.03847 0.07208,0.0083 0.141654,0.0126 0.208456,0.0126 0.06668,6.3e-5 0.130452,-0.0039 0.192296,-0.01187 0.06183,-0.0076 0.121546,-0.01912 0.179141,-0.03387 0.05778,-0.01481 0.113436,-0.03278 0.16716,-0.054 0.05352,-0.02122 0.104742,-0.04524 0.154794,-0.07232 0.04986,-0.0271 0.09894,-0.05739 0.145518,-0.08973 0.0468,-0.03234 0.09179,-0.06741 0.135659,-0.104368 0.08831,-0.07395 0.171609,-0.155718 0.251013,-0.244454 0.07943,-0.08872 0.155379,-0.184298 0.229701,-0.2829 0.148221,-0.197198 0.288563,-0.409069 0.435177,-0.616163 0.07324,-0.103568 0.147835,-0.205344 0.225658,-0.303961 0.07787,-0.09861 0.159432,-0.194144 0.244948,-0.2829 0.0429,-0.0444 0.08734,-0.08718 0.13257,-0.128173 0.0454,-0.04097 0.09122,-0.08021 0.13972,-0.117204 0.04853,-0.03695 0.09913,-0.0711 0.150739,-0.10348 0.05178,-0.03235 0.105308,-0.06263 0.160976,-0.08972 0.05566,-0.02711 0.11209,-0.05107 0.172378,-0.07232 0.05953,-0.02127 0.121745,-0.04015 0.186293,-0.05494 0.06434,-0.01481 0.131996,-0.02617 0.201468,-0.03387 0.06918,-0.0076 0.140485,-0.01093 0.215551,-0.01093 0.07479,1.9e-5 0.153242,0.0034 0.233788,0.01187 0.08078,0.0083 0.164077,0.02117 0.250941,0.03847 0.08714,0.0174 0.177786,0.03907 0.271261,0.06591 0.09373,0.02681 0.190739,0.05909 0.291446,0.09612 h 8.568728 v 8.499861 c -0.513648,0.297404 -1.033834,0.589631 -1.560544,0.876172 -0.52668,0.286549 -1.060075,0.567704 -1.598973,0.841386 -0.269445,0.136843 -0.540311,0.271421 -0.812658,0.404672 -0.272301,0.133245 -0.54562,0.265188 -0.82075,0.3946 -0.27507,0.129413 -0.552071,0.256469 -0.829836,0.381783 -0.277762,0.125301 -0.556614,0.248905 -0.836932,0.369884 -0.280304,0.120982 -0.562273,0.239764 -0.845006,0.356145 -0.28276,0.11639 -0.566029,0.229958 -0.851116,0.341494 -0.285077,0.111539 -0.571878,0.22041 -0.859211,0.326851 -0.287323,0.106441 -0.575849,0.210189 -0.865256,0.311283 -0.289415,0.101089 -0.579944,0.199306 -0.871347,0.294807 -0.291419,0.09549 -0.583098,0.188669 -0.876434,0.278326 -0.293269,0.08966 -0.587366,0.176466 -0.882458,0.260012 -0.295093,0.08359 -0.591748,0.163555 -0.888525,0.240789 -0.2968,0.07721 -0.594283,0.151886 -0.892592,0.222473 -0.298337,0.07063 -0.59689,0.137637 -0.896656,0.201428 -0.299791,0.06376 -0.600588,0.123688 -0.901728,0.18037 -0.301106,0.05667 -0.603368,0.109999 -0.905728,0.159292 -0.30236,0.04933 -0.605315,0.0947 -0.908772,0.136431 -0.303504,0.0417 -0.607375,0.07967 -0.911854,0.113536 -0.304491,0.03387 -0.609459,0.06393 -0.914857,0.08972 -0.234222,0.01975 -0.46861,0.03455 -0.703353,0.04947 -9.43e-4,0.11989 8e-5,0.239902 -9.43e-4,0.359807 -0.0077,0.837187 -0.02203,1.674284 -0.02726,2.511338 -0.0013,0.418525 -0.0013,0.837083 9.45e-4,1.255215 0.0013,0.251049 0.0078,0.501731 0.01351,0.752578 0.0429,-9.26e-4 0.08581,-9.26e-4 0.128511,-0.0016 0.420514,-0.0098 0.839904,-0.02437 1.258955,-0.04215 0.419004,-0.01758 0.837739,-0.0396 1.254891,-0.065 0.417129,-0.02538 0.832891,-0.05411 1.247815,-0.087 0.313709,-0.02131 0.627434,-0.04598 0.940171,-0.07324 0.31271,-0.02725 0.624452,-0.05661 0.936101,-0.08972 0.311669,-0.03309 0.622619,-0.06915 0.933038,-0.108053 0.310493,-0.03887 0.620831,-0.08082 0.930056,-0.125429 0.309235,-0.04464 0.618073,-0.09253 0.926013,-0.142807 0.307967,-0.05027 0.614381,-0.10344 0.920899,-0.159292 0.306558,-0.05587 0.612872,-0.114371 0.917918,-0.175777 0.305067,-0.06141 0.609322,-0.125395 0.912845,-0.192263 0.303537,-0.06686 0.605853,-0.136492 0.907766,-0.208745 0.301905,-0.07226 0.603482,-0.147641 0.903723,-0.225221 0.300213,-0.0776 0.599233,-0.157925 0.897669,-0.240792 0.298453,-0.08289 0.595965,-0.168295 0.892604,-0.256352 0.296622,-0.08805 0.592812,-0.177818 0.88752,-0.271002 0.294731,-0.09318 0.588739,-0.189227 0.881451,-0.287483 0.292704,-0.09825 0.583754,-0.198876 0.874347,-0.302129 0.290667,-0.103254 0.58091,-0.209512 0.869337,-0.317694 0.288499,-0.108159 0.574976,-0.21838 0.861239,-0.331427 0.286246,-0.113074 0.572186,-0.229144 0.856173,-0.34699 0.283975,-0.11785 0.566463,-0.237229 0.848065,-0.359805 0.281571,-0.122595 0.561862,-0.248132 0.840991,-0.375378 0.27913,-0.127227 0.557262,-0.256341 0.833894,-0.388189 0.276606,-0.131854 0.55181,-0.266456 0.825818,-0.40284 0.273964,-0.136396 0.546375,-0.274807 0.817661,-0.415661 0.271379,-0.140837 0.541064,-0.284134 0.80963,-0.429388 0.268566,-0.145249 0.535801,-0.29262 0.80151,-0.442206 0.265707,-0.149581 0.530597,-0.301167 0.793404,-0.455027 0.26285,-0.153867 0.524518,-0.30978 0.784359,-0.46784 0.259834,-0.158071 0.517376,-0.318466 0.774144,-0.480662 0.256814,-0.162197 0.512443,-0.326296 0.766095,-0.492561 0.253673,-0.166276 0.505554,-0.334198 0.75599,-0.504468 0.25042,-0.170274 0.499766,-0.343073 0.746879,-0.517283 0.24714,-0.174205 0.491932,-0.35019 0.735721,-0.528267 0.01932,-0.07379 0.0319,-0.145828 0.04346,-0.216989 0.01159,-0.07117 0.0205,-0.141097 0.02628,-0.209655 0.0057,-0.06856 0.0096,-0.136413 0.0096,-0.202335 0,-0.06591 -0.0013,-0.129931 -0.0078,-0.193183 -0.0057,-0.06324 -0.01355,-0.12526 -0.02532,-0.185855 -0.01161,-0.06057 -0.02628,-0.119743 -0.04346,-0.177612 -0.01935,-0.05787 -0.03671,-0.115112 -0.05971,-0.170296 -0.02281,-0.05516 -0.0491,-0.108683 -0.07787,-0.161108 -0.02879,-0.05245 -0.06029,-0.103181 -0.09528,-0.152898 -0.03497,-0.04968 -0.07267,-0.09772 -0.113445,-0.144642 -0.0406,-0.04696 -0.08483,-0.09318 -0.131599,-0.137318 -0.0468,-0.04416 -0.09721,-0.08683 -0.149775,-0.128172 -0.05294,-0.04137 -0.108026,-0.08141 -0.167159,-0.119965 -0.05894,-0.03852 -0.121171,-0.07507 -0.186293,-0.110778 -0.06494,-0.03568 -0.132185,-0.07062 -0.203504,-0.103455 -0.07112,-0.03284 -0.145133,-0.0634 -0.222651,-0.09338 -0.08754,-0.02671 -0.169477,-0.05665 -0.244882,-0.08881 -0.07557,-0.0322 -0.144557,-0.06713 -0.209465,-0.104368 -0.06454,-0.03725 -0.124646,-0.07709 -0.179143,-0.119037 -0.05469,-0.04195 -0.104565,-0.0856 -0.149773,-0.131838 -0.0452,-0.04627 -0.0858,-0.09446 -0.122332,-0.144636 -0.0367,-0.05018 -0.06898,-0.102775 -0.09797,-0.156552 -0.02898,-0.05375 -0.05488,-0.108719 -0.07712,-0.165701 -0.02203,-0.05698 -0.04059,-0.115984 -0.05662,-0.175779 -0.01738,-0.0598 -0.02976,-0.120817 -0.04059,-0.183117 -0.0096,-0.06226 -0.02049,-0.126054 -0.02532,-0.190432 -0.01159,-0.128723 -0.01543,-0.260639 -0.01543,-0.395512 9.44e-4,-0.134878 0.0057,-0.272138 0.01355,-0.410161 0.0078,-0.138044 0.01932,-0.277451 0.02531,-0.415657 0.01355,-0.396046 0.02049,-0.792832 0.02224,-1.190211 0.0013,-0.397374 -0.0013,-0.794812 -0.0078,-1.192956 -0.01161,-0.796279 -0.0313,-1.593658 -0.03845,-2.389568 -0.004,-0.397958 -0.004,-0.795945 0.0013,-1.192956 0.0057,-0.397008 0.01932,-0.792887 0.03728,-1.188375 0.0096,-0.197746 0.02337,-0.395099 0.03845,-0.59236 0.01543,-0.197261 0.03226,-0.394738 0.05276,-0.591441 0.02049,-0.196701 0.0433,-0.392619 0.06976,-0.588694 0.02629,-0.196069 0.05586,-0.392408 0.08909,-0.587783 0.22315,-0.150159 0.59299,-0.376935 0.980649,-0.636302 0.193868,-0.129666 0.392209,-0.267195 0.578841,-0.407415 0.09334,-0.07012 0.18359,-0.140843 0.269205,-0.21149 0.0856,-0.07065 0.166383,-0.141696 0.23986,-0.211494 0.07344,-0.06978 0.140497,-0.13847 0.198395,-0.205995 0.05797,-0.06754 0.105896,-0.133897 0.143772,-0.197756 0.02049,-0.03196 0.03554,-0.06353 0.04868,-0.09429 0.01355,-0.03073 0.02321,-0.0603 0.03033,-0.08972 0.0077,-0.0294 0.01159,-0.05819 0.01159,-0.08606 0,-0.02789 -0.004,-0.05528 -0.0096,-0.08149 -0.0078,-0.02617 -0.01932,-0.0517 -0.03227,-0.07599 -0.01738,-0.02427 -0.03364,-0.04735 -0.05662,-0.0696 -0.02302,-0.02229 -0.05006,-0.04318 -0.08213,-0.06318 -0.03169,-0.02005 -0.06842,-0.03911 -0.109189,-0.05676 -0.04075,-0.01759 -0.08696,-0.03441 -0.137781,-0.04944 -0.05082,-0.0152 -0.106873,-0.02887 -0.168129,-0.04122 -0.06125,-0.0124 -0.126589,-0.02264 -0.198394,-0.03205 -0.07207,-0.0094 -0.149576,-0.0174 -0.232772,-0.02382 -3.302529,-0.0074 -6.604851,4.9e-5 -9.907603,0.0024 -1.651387,0.0015 -3.303561,0.0015 -4.95483,-0.0015 -1.651251,-0.0029 -3.301683,-0.01 -4.952779,-0.02289 -0.06319,0.01833 -0.125808,0.03127 -0.187066,0.03941 -0.06125,0.0081 -0.121747,0.01054 -0.181074,0.0093 -0.05932,-0.0015 -0.117498,-0.0074 -0.175092,-0.0174 -0.05778,-0.01 -0.114398,-0.02416 -0.170058,-0.0421 -0.05566,-0.01799 -0.110144,-0.03994 -0.163873,-0.06501 -0.05412,-0.02504 -0.107637,-0.05282 -0.159815,-0.08421 -0.05237,-0.03137 -0.103002,-0.06652 -0.153828,-0.103475 -0.05082,-0.03695 -0.100685,-0.07644 -0.149766,-0.118131 -0.09795,-0.08337 -0.193215,-0.175131 -0.285343,-0.272818 -0.09237,-0.09768 -0.18145,-0.201 -0.268186,-0.306706 -0.173538,-0.211416 -0.335718,-0.432291 -0.489813,-0.638139 -0.07711,-0.102922 -0.151699,-0.201775 -0.224654,-0.293889 -0.07304,-0.09212 -0.144357,-0.177665 -0.21354,-0.252688 -0.06918,-0.07503 -0.137403,-0.139692 -0.203516,-0.191346 -0.03304,-0.02583 -0.0657,-0.04896 -0.09797,-0.06773 -0.03227,-0.01882 -0.06436,-0.03387 -0.09624,-0.04485 -0.0317,-0.01093 -0.06299,-0.01759 -0.09431,-0.02015 -0.01543,-9.26e-4 -0.0311,-9.26e-4 -0.04659,0 z" />
  </g>
</svg>
